<mxfile host="65bd71144e">
    <diagram id="CTFWMm-DP78kWCE7ZIiD" name="Page-1">
        <mxGraphModel dx="993" dy="1840" grid="1" gridSize="10" guides="1" tooltips="1" connect="1" arrows="1" fold="1" page="1" pageScale="1" pageWidth="850" pageHeight="1100" math="0" shadow="0">
            <root>
                <mxCell id="0"/>
                <mxCell id="1" parent="0"/>
                <mxCell id="egmk5udydxf43mqxfK64-5" value="" style="rounded=0;whiteSpace=wrap;html=1;fillColor=#f5f5f5;strokeColor=#666666;fontColor=#333333;" parent="1" vertex="1">
                    <mxGeometry x="190" y="-20" width="840" height="640" as="geometry"/>
                </mxCell>
                <mxCell id="egmk5udydxf43mqxfK64-3" value="&lt;b&gt;Google &lt;/b&gt;Cloud Platform" style="fillColor=#f5f5f5;strokeColor=#666666;shadow=0;fontSize=14;align=left;spacing=10;9E9E9E;verticalAlign=top;spacingTop=-4;fontStyle=0;spacingLeft=40;html=1;fontColor=#333333;" parent="1" vertex="1">
                    <mxGeometry x="240" y="20" width="540" height="560" as="geometry"/>
                </mxCell>
                <mxCell id="egmk5udydxf43mqxfK64-4" value="" style="shape=mxgraph.gcp2.google_cloud_platform;fillColor=#F6F6F6;strokeColor=none;shadow=0;gradientColor=none;" parent="egmk5udydxf43mqxfK64-3" vertex="1">
                    <mxGeometry width="23" height="20" relative="1" as="geometry">
                        <mxPoint x="20" y="10" as="offset"/>
                    </mxGeometry>
                </mxCell>
                <mxCell id="lypKQHH3KZ5u025BPs_v-1" value="" style="whiteSpace=wrap;html=1;aspect=fixed;fillColor=#ffe6cc;strokeColor=#d79b00;rounded=0;glass=0;" parent="1" vertex="1">
                    <mxGeometry x="270" y="60" width="490" height="490" as="geometry"/>
                </mxCell>
                <mxCell id="lypKQHH3KZ5u025BPs_v-2" value="" style="strokeColor=#666666;shadow=1;strokeWidth=1;rounded=1;absoluteArcSize=1;arcSize=2;fillColor=#f5f5f5;fontColor=#333333;" parent="1" vertex="1">
                    <mxGeometry x="280" y="70" width="180" height="60" as="geometry"/>
                </mxCell>
                <mxCell id="lypKQHH3KZ5u025BPs_v-3" value="&lt;font color=&quot;#000000&quot;&gt;default&lt;/font&gt;&lt;br&gt;Virtual Private Cloud" style="editableCssRules=.*;html=1;fontColor=#999999;shape=image;verticalLabelPosition=middle;labelBackgroundColor=#ffffff;verticalAlign=middle;labelPosition=right;align=left;spacingLeft=20;part=1;points=[];imageAspect=0;image=data:image/svg+xml,PHN2ZyB4bWxucz0iaHR0cDovL3d3dy53My5vcmcvMjAwMC9zdmciIHhtbG5zOnY9Imh0dHBzOi8vdmVjdGEuaW8vbmFubyIgd2lkdGg9IjIwIiBoZWlnaHQ9IjIwIiB2aWV3Qm94PSIwIDAgMjAgMjAiPiYjeGE7CTxzdHlsZSB0eXBlPSJ0ZXh0L2NzcyI+JiN4YTsJLnN0MHtmaWxsOiM0Mjg1ZjQ7fSYjeGE7CS5zdDF7ZmlsbDojNjY5ZGY2O30mI3hhOwkuc3Qye2ZpbGw6I2FlY2JmYTt9JiN4YTsJPC9zdHlsZT4mI3hhOwk8cGF0aCBjbGFzcz0ic3QyIiBkPSJNMTQgMGg2djZoLTZ6Ii8+JiN4YTsJPHBhdGggY2xhc3M9InN0MSIgZD0iTTE3IDBoM3Y2aC0zeiIvPiYjeGE7CTxwYXRoIGNsYXNzPSJzdDIiIGQ9Ik0xNCAxNGg2djZoLTZ6Ii8+JiN4YTsJPHBhdGggY2xhc3M9InN0MSIgZD0iTTE3IDE0aDN2NmgtM3oiLz4mI3hhOwk8cGF0aCBjbGFzcz0ic3QyIiBkPSJNMCAwaDZ2NkgweiIvPiYjeGE7CTxwYXRoIGNsYXNzPSJzdDEiIGQ9Ik0zIDBoM3Y2SDN6Ii8+JiN4YTsJPHBhdGggY2xhc3M9InN0MiIgZD0iTTAgMTRoNnY2SDB6Ii8+JiN4YTsJPGcgY2xhc3M9InN0MSI+JiN4YTsJCTxwYXRoIGQ9Ik0zIDE0aDN2Nkgzek02IDJoOHYySDZ6Ii8+JiN4YTsJCTxwYXRoIGQ9Ik02IDE2aDh2Mkg2ek0xNiA2aDJ2OGgtMnpNMiA2aDJ2OEgyeiIvPiYjeGE7CTwvZz4mI3hhOwk8cGF0aCBjbGFzcz0ic3QwIiBkPSJNMiA2aDJ2Mkgyem0xNCAwaDJ2MmgtMnpNNiAyaDJ2Mkg2em0wIDE0aDJ2Mkg2eiIvPiYjeGE7PC9zdmc+;" parent="lypKQHH3KZ5u025BPs_v-2" vertex="1">
                    <mxGeometry width="30" height="30" relative="1" as="geometry">
                        <mxPoint x="15" y="15" as="offset"/>
                    </mxGeometry>
                </mxCell>
                <mxCell id="lypKQHH3KZ5u025BPs_v-10" style="edgeStyle=orthogonalEdgeStyle;rounded=0;orthogonalLoop=1;jettySize=auto;html=1;entryX=1;entryY=0.5;entryDx=0;entryDy=0;" parent="1" source="lypKQHH3KZ5u025BPs_v-4" target="lypKQHH3KZ5u025BPs_v-6" edge="1">
                    <mxGeometry relative="1" as="geometry"/>
                </mxCell>
                <mxCell id="lypKQHH3KZ5u025BPs_v-32" style="edgeStyle=orthogonalEdgeStyle;rounded=0;orthogonalLoop=1;jettySize=auto;html=1;entryX=0.5;entryY=1;entryDx=0;entryDy=0;startArrow=classic;startFill=1;strokeColor=#000000;" parent="1" source="lypKQHH3KZ5u025BPs_v-4" target="lypKQHH3KZ5u025BPs_v-28" edge="1">
                    <mxGeometry relative="1" as="geometry"/>
                </mxCell>
                <mxCell id="lypKQHH3KZ5u025BPs_v-35" value="&lt;b&gt;Prediction Stuff&lt;/b&gt;" style="edgeLabel;html=1;align=center;verticalAlign=middle;resizable=0;points=[];fontSize=14;fontColor=#1A1A1A;labelBackgroundColor=#FFFFFF;" parent="lypKQHH3KZ5u025BPs_v-32" vertex="1" connectable="0">
                    <mxGeometry x="-0.0766" y="-4" relative="1" as="geometry">
                        <mxPoint x="-4" y="-14" as="offset"/>
                    </mxGeometry>
                </mxCell>
                <mxCell id="lypKQHH3KZ5u025BPs_v-4" value="" style="shape=mxgraph.gcp2.doubleRect;strokeColor=#666666;shadow=1;strokeWidth=1;rounded=1;absoluteArcSize=1;arcSize=2;fillColor=#f5f5f5;fontColor=#333333;" parent="1" vertex="1">
                    <mxGeometry x="550" y="276" width="190" height="68" as="geometry"/>
                </mxCell>
                <mxCell id="lypKQHH3KZ5u025BPs_v-5" value="&lt;font color=&quot;#000000&quot;&gt;REST API&lt;/font&gt;&lt;br&gt;App Engine" style="editableCssRules=.*;html=1;fontColor=#999999;shape=image;verticalLabelPosition=middle;labelBackgroundColor=#ffffff;verticalAlign=middle;labelPosition=right;align=left;spacingLeft=20;part=1;points=[];imageAspect=0;image=data:image/svg+xml,PHN2ZyB4bWxucz0iaHR0cDovL3d3dy53My5vcmcvMjAwMC9zdmciIHhtbG5zOnY9Imh0dHBzOi8vdmVjdGEuaW8vbmFubyIgd2lkdGg9IjIwIiBoZWlnaHQ9IjE2LjAyMDAwMDQ1Nzc2MzY3MiIgZmlsbC1ydWxlPSJldmVub2RkIiB2aWV3Qm94PSI4Ljk0MDY5NjcxNjMwODU5NGUtOCAwIDIwIDE2LjAyMDAwMDQ1Nzc2MzY3MiI+JiN4YTsJPHN0eWxlIHR5cGU9InRleHQvY3NzIj4mI3hhOwkuc3Qwe2ZpbGw6IzQyODVmNDt9JiN4YTsJLnN0MXtmaWxsOiNhZWNiZmE7fSYjeGE7CS5zdDJ7ZmlsbDojNjY5ZGY2O30mI3hhOwk8L3N0eWxlPiYjeGE7CTxwYXRoIGNsYXNzPSJzdDAiIGQ9Ik0xMi4zIDcuMjZsLTEuMjIgMS4yMkExLjcxIDEuNzEgMCAwIDEgMTAgMTEuNDlhMS43NCAxLjc0IDAgMCAxLTEuMzMtLjY0bC0xLjIyIDEuMjJhMy40MyAzLjQzIDAgMCAwIDUuOTg0LTEuMzgxQTMuNDMgMy40MyAwIDAgMCAxMi4zIDcuMjZ6Ii8+JiN4YTsJPHBhdGggY2xhc3M9InN0MSIgZD0iTTEwIDMuNTJhNi4yNSA2LjI1IDAgMCAwIDAgMTIuNSA2LjI1IDYuMjUgMCAwIDAgMC0xMi41bTAgMTAuNzRhNC40NSA0LjQ1IDAgMCAxLTMuMTU3LTcuNTk3QTQuNDUgNC40NSAwIDAgMSAxNC40NCA5LjgyIDQuNDQgNC40NCAwIDAgMSAxMCAxNC4yNiIvPiYjeGE7CTxwYXRoIGNsYXNzPSJzdDIiIGQ9Ik0xOS42MiA5LjE2bC0yLjU2LS44MWE3LjEgNy4xIDAgMCAxIC4xNyAxLjUzIDcuNjIgNy42MiAwIDAgMS0uMDggMS4wOGgyLjQ3YS40NC40NCAwIDAgMCAuMzgtLjQydi0xYS40NC40NCAwIDAgMC0uMzgtLjQyTTEwIDIuNzhhNy40OCA3LjQ4IDAgMCAxIDEuNS4xNUwxMC41OC4zOGMtLjA3LS4yMi0uMjEtLjM4LS40Mi0uMzhoLS4zOGEuNDUuNDUgMCAwIDAtLjQyLjM4bC0uOCAyLjU0QTcuNjQgNy42NCAwIDAgMSAxMCAyLjc4bS03LjIzIDcuMWE3LjEgNy4xIDAgMCAxIC4xNy0xLjUzbC0yLjU2LjgxYS40NC40NCAwIDAgMC0uMzguNDJ2MWEuNDQuNDQgMCAwIDAgLjM4LjQyaDIuNDdhNy42MiA3LjYyIDAgMCAxLS4wOC0xLjA4Ii8+JiN4YTsJPHBhdGggY2xhc3M9InN0MSIgZD0iTTEwIDcuMjZhMi41IDIuNSAwIDEgMCAwIDUgMi41IDIuNSAwIDEgMCAwLTV6bTAgMy43NWExLjI1IDEuMjUgMCAxIDEgMC0yLjUgMS4yNSAxLjI1IDAgMCAxIDEuMjUgMS4yNUExLjI1IDEuMjUgMCAwIDEgMTAgMTEuMDJ6Ii8+JiN4YTs8L3N2Zz4=;" parent="lypKQHH3KZ5u025BPs_v-4" vertex="1">
                    <mxGeometry width="30" height="24" relative="1" as="geometry">
                        <mxPoint x="15" y="18" as="offset"/>
                    </mxGeometry>
                </mxCell>
                <mxCell id="lypKQHH3KZ5u025BPs_v-8" style="edgeStyle=orthogonalEdgeStyle;rounded=0;orthogonalLoop=1;jettySize=auto;html=1;entryX=0;entryY=0.5;entryDx=0;entryDy=0;strokeColor=#1A1A1A;" parent="1" source="lypKQHH3KZ5u025BPs_v-6" target="lypKQHH3KZ5u025BPs_v-4" edge="1">
                    <mxGeometry relative="1" as="geometry"/>
                </mxCell>
                <mxCell id="lypKQHH3KZ5u025BPs_v-6" value="" style="strokeColor=#666666;shadow=1;strokeWidth=1;rounded=1;absoluteArcSize=1;arcSize=2;fillColor=#f5f5f5;fontColor=#333333;" parent="1" vertex="1">
                    <mxGeometry x="280" y="280" width="210" height="60" as="geometry"/>
                </mxCell>
                <mxCell id="lypKQHH3KZ5u025BPs_v-7" value="&lt;font color=&quot;#000000&quot;&gt;Dataset-related Database&lt;/font&gt;&lt;br&gt;Compute Engine" style="editableCssRules=.*;html=1;fontColor=#999999;shape=image;verticalLabelPosition=middle;labelBackgroundColor=#ffffff;verticalAlign=middle;labelPosition=right;align=left;spacingLeft=20;part=1;points=[];imageAspect=0;image=data:image/svg+xml,PHN2ZyB4bWxucz0iaHR0cDovL3d3dy53My5vcmcvMjAwMC9zdmciIHhtbG5zOnY9Imh0dHBzOi8vdmVjdGEuaW8vbmFubyIgd2lkdGg9IjIwIiBoZWlnaHQ9IjIwIiB2aWV3Qm94PSIwIDAgMjAgMjAiPiYjeGE7CTxzdHlsZSB0eXBlPSJ0ZXh0L2NzcyI+JiN4YTsJLnN0MHtmaWxsOiM0Mjg1ZjQ7fSYjeGE7CS5zdDF7ZmlsbDojNjY5ZGY2O30mI3hhOwkuc3Qye2ZpbGw6I2FlY2JmYTt9JiN4YTsJPC9zdHlsZT4mI3hhOwk8cGF0aCBjbGFzcz0ic3QyIiBkPSJNNyA3aDZ2Nkg3eiIvPiYjeGE7CTxwYXRoIGNsYXNzPSJzdDEiIGQ9Ik05IDBoMnY0SDl6TTUgMGgydjRINXptOCAwaDJ2NGgtMnoiLz4mI3hhOwk8cGF0aCBjbGFzcz0ic3QwIiBkPSJNOSAxNmgydjRIOXptLTQgMGgydjRINXptOCAwaDJ2NGgtMnptMy01VjloNHYyem0wIDR2LTJoNHYyem0wLThWNWg0djJ6Ii8+JiN4YTsJPHBhdGggY2xhc3M9InN0MSIgZD0iTTAgMTFWOWg0djJ6bTAgNHYtMmg0djJ6bTAtOFY1aDR2MnoiLz4mI3hhOwk8cGF0aCBjbGFzcz0ic3QyIiBkPSJNMyAzdjE0aDE0VjN6bTEyIDEySDVWNWgxMHoiLz4mI3hhOwk8cGF0aCBjbGFzcz0ic3QxIiBkPSJNMTAgMTBsLTMgM2g2eiIvPiYjeGE7CTxwYXRoIGNsYXNzPSJzdDAiIGQ9Ik0xMyA3bC0zIDMgMyAzeiIvPiYjeGE7PC9zdmc+;" parent="lypKQHH3KZ5u025BPs_v-6" vertex="1">
                    <mxGeometry width="30" height="30" relative="1" as="geometry">
                        <mxPoint x="15" y="15" as="offset"/>
                    </mxGeometry>
                </mxCell>
                <mxCell id="lypKQHH3KZ5u025BPs_v-13" style="edgeStyle=orthogonalEdgeStyle;rounded=0;orthogonalLoop=1;jettySize=auto;html=1;entryX=0.5;entryY=0;entryDx=0;entryDy=0;exitX=0.5;exitY=1;exitDx=0;exitDy=0;startArrow=classic;startFill=1;strokeColor=#1A1A1A;" parent="1" source="lypKQHH3KZ5u025BPs_v-11" target="lypKQHH3KZ5u025BPs_v-4" edge="1">
                    <mxGeometry relative="1" as="geometry"/>
                </mxCell>
                <mxCell id="lypKQHH3KZ5u025BPs_v-31" style="edgeStyle=orthogonalEdgeStyle;rounded=0;orthogonalLoop=1;jettySize=auto;html=1;entryX=0;entryY=0.5;entryDx=0;entryDy=0;startArrow=classic;startFill=1;strokeColor=#1A1A1A;" parent="1" source="lypKQHH3KZ5u025BPs_v-11" target="lypKQHH3KZ5u025BPs_v-28" edge="1">
                    <mxGeometry relative="1" as="geometry"/>
                </mxCell>
                <mxCell id="lypKQHH3KZ5u025BPs_v-34" value="User Data" style="edgeLabel;html=1;align=center;verticalAlign=middle;resizable=0;points=[];fontSize=14;fontStyle=1;fontColor=#1A1A1A;labelBackgroundColor=#FFFFFF;" parent="lypKQHH3KZ5u025BPs_v-31" vertex="1" connectable="0">
                    <mxGeometry x="0.1778" y="-2" relative="1" as="geometry">
                        <mxPoint x="4" y="-12" as="offset"/>
                    </mxGeometry>
                </mxCell>
                <mxCell id="lypKQHH3KZ5u025BPs_v-11" value="" style="strokeColor=#666666;shadow=1;strokeWidth=1;rounded=1;absoluteArcSize=1;arcSize=2;fillColor=#f5f5f5;fontColor=#333333;" parent="1" vertex="1">
                    <mxGeometry x="550" y="190" width="190" height="60" as="geometry"/>
                </mxCell>
                <mxCell id="lypKQHH3KZ5u025BPs_v-12" value="&lt;font color=&quot;#000000&quot;&gt;User-related Data&lt;/font&gt;&lt;br&gt;Firestore" style="editableCssRules=.*;html=1;fontColor=#999999;shape=image;verticalLabelPosition=middle;labelBackgroundColor=#ffffff;verticalAlign=middle;labelPosition=right;align=left;spacingLeft=20;part=1;points=[];imageAspect=0;image=data:image/svg+xml,PHN2ZyB4bWxucz0iaHR0cDovL3d3dy53My5vcmcvMjAwMC9zdmciIHhtbG5zOnY9Imh0dHBzOi8vdmVjdGEuaW8vbmFubyIgd2lkdGg9IjMyMy45MDU2MTAzOTg2NzUxNSIgaGVpZ2h0PSIzNzYuNDIyMjk0OTYzNjg0MDciIHZpZXdCb3g9Ii0wLjA5NzAwMDAwMjg2MTAyMjk1IDAuMjg3OTk5OTg3NjAyMjMzOSA4NS42OTk5OTY5NDgyNDIxOSA5OS41OTUwMDEyMjA3MDMxMiI+JiN4YTs8c3R5bGUgdHlwZT0idGV4dC9jc3MiPiYjeGE7CS5zdDB7ZmlsbDojYWVjYmZhO30mI3hhOwkuc3Qxe2ZpbGw6IzY2OWRmNjt9JiN4YTsJLnN0MntmaWxsOiM0Mjg1ZjQ7fSYjeGE7PC9zdHlsZT4mI3hhOwk8cGF0aCBjbGFzcz0ic3QwIiBkPSJNLS4wOTcgNzUuODE1VjU1Ljg3NGw0Mi44NS0yMC4xODN2MTkuMDd6bTAtMzUuNDAzVjIwLjQ3MUw0Mi43NTMuMjg4djE5LjA3eiIvPiYjeGE7CTxwYXRoIGNsYXNzPSJzdDEiIGQ9Ik04NS42MDMgNzUuODE1VjU1Ljg3NGwtNDIuODUtMjAuMTgzdjE5LjA3em0wLTM1LjQwM1YyMC40NzFMNDIuNzUzLjI4OHYxOS4wN3oiLz4mI3hhOwk8cGF0aCBjbGFzcz0ic3QyIiBkPSJNNDIuNzUzIDgwLjMxNGwxNi4yMTctNy41MjUgMjEuMDg0IDkuNzE3LTM3LjMwMSAxNy4zNzd6Ii8+JiN4YTs8L3N2Zz4=;" parent="lypKQHH3KZ5u025BPs_v-11" vertex="1">
                    <mxGeometry width="26" height="30" relative="1" as="geometry">
                        <mxPoint x="17" y="15" as="offset"/>
                    </mxGeometry>
                </mxCell>
                <mxCell id="lypKQHH3KZ5u025BPs_v-30" style="edgeStyle=orthogonalEdgeStyle;rounded=0;orthogonalLoop=1;jettySize=auto;html=1;entryX=0.5;entryY=0;entryDx=0;entryDy=0;startArrow=classic;startFill=1;strokeColor=#1A1A1A;" parent="1" source="lypKQHH3KZ5u025BPs_v-21" target="lypKQHH3KZ5u025BPs_v-28" edge="1">
                    <mxGeometry relative="1" as="geometry"/>
                </mxCell>
                <mxCell id="lypKQHH3KZ5u025BPs_v-33" value="Authentication" style="edgeLabel;html=1;align=center;verticalAlign=middle;resizable=0;points=[];fontSize=14;fontStyle=1;fontColor=#1A1A1A;labelBackgroundColor=#FFFFFF;" parent="lypKQHH3KZ5u025BPs_v-30" vertex="1" connectable="0">
                    <mxGeometry x="-0.3126" y="-2" relative="1" as="geometry">
                        <mxPoint x="21" y="-12" as="offset"/>
                    </mxGeometry>
                </mxCell>
                <mxCell id="lypKQHH3KZ5u025BPs_v-21" value="" style="strokeColor=#666666;shadow=1;strokeWidth=1;rounded=1;absoluteArcSize=1;arcSize=2;glass=0;fillColor=#f5f5f5;fontColor=#333333;" parent="1" vertex="1">
                    <mxGeometry x="550" y="110" width="190" height="60" as="geometry"/>
                </mxCell>
                <mxCell id="lypKQHH3KZ5u025BPs_v-22" value="&lt;font color=&quot;#000000&quot;&gt;User Authentication&lt;/font&gt;&lt;br&gt;Firebase" style="sketch=0;dashed=0;connectable=0;html=1;fillColor=#5184F3;strokeColor=none;shape=mxgraph.gcp2.firebase;part=1;labelPosition=right;verticalLabelPosition=middle;align=left;verticalAlign=middle;spacingLeft=5;fontColor=#999999;fontSize=12;rounded=0;glass=0;" parent="lypKQHH3KZ5u025BPs_v-21" vertex="1">
                    <mxGeometry width="32.4" height="45" relative="1" as="geometry">
                        <mxPoint x="5" y="7" as="offset"/>
                    </mxGeometry>
                </mxCell>
                <mxCell id="lypKQHH3KZ5u025BPs_v-27" style="edgeStyle=orthogonalEdgeStyle;rounded=0;orthogonalLoop=1;jettySize=auto;html=1;entryX=0.25;entryY=1;entryDx=0;entryDy=0;startArrow=classic;startFill=1;strokeColor=#1A1A1A;" parent="1" source="lypKQHH3KZ5u025BPs_v-25" target="lypKQHH3KZ5u025BPs_v-4" edge="1">
                    <mxGeometry relative="1" as="geometry"/>
                </mxCell>
                <mxCell id="lypKQHH3KZ5u025BPs_v-25" value="" style="strokeColor=#666666;shadow=1;strokeWidth=1;rounded=1;absoluteArcSize=1;arcSize=2;glass=0;fillColor=#f5f5f5;fontColor=#333333;" parent="1" vertex="1">
                    <mxGeometry x="280" y="370" width="210" height="60" as="geometry"/>
                </mxCell>
                <mxCell id="lypKQHH3KZ5u025BPs_v-26" value="&lt;font color=&quot;#000000&quot;&gt;User Disease Photos&lt;/font&gt;&lt;br&gt;Cloud Storage" style="editableCssRules=.*;html=1;fontColor=#999999;shape=image;verticalLabelPosition=middle;labelBackgroundColor=#ffffff;verticalAlign=middle;labelPosition=right;align=left;spacingLeft=20;part=1;points=[];imageAspect=0;image=data:image/svg+xml,PHN2ZyB4bWxucz0iaHR0cDovL3d3dy53My5vcmcvMjAwMC9zdmciIHhtbG5zOnY9Imh0dHBzOi8vdmVjdGEuaW8vbmFubyIgd2lkdGg9IjIwIiBoZWlnaHQ9IjE2IiB2aWV3Qm94PSIwIDAgMjAgMTYiPiYjeGE7CTxzdHlsZSB0eXBlPSJ0ZXh0L2NzcyI+JiN4YTsJLnN0MHtmaWxsOiM0Mjg1ZjQ7fSYjeGE7CS5zdDF7ZmlsbDojNjY5ZGY2O30mI3hhOwkuc3Qye2ZpbGw6I2FlY2JmYTt9JiN4YTsJLnN0M3tmaWxsOiNmZmY7fSYjeGE7CTwvc3R5bGU+JiN4YTsJPHBhdGggY2xhc3M9InN0MiIgZD0iTTAgMGgyMHY3SDB6Ii8+JiN4YTsJPHBhdGggY2xhc3M9InN0MSIgZD0iTTE4IDBoMnY3aC0yeiIvPiYjeGE7CTxwYXRoIGNsYXNzPSJzdDAiIGQ9Ik0xOCA3bDItN2gtMnoiLz4mI3hhOwk8cGF0aCBjbGFzcz0ic3QxIiBkPSJNMCAwaDJ2N0gweiIvPiYjeGE7CTxnIGNsYXNzPSJzdDMiPiYjeGE7CQk8cGF0aCBkPSJNNCAzaDZ2MUg0eiIvPiYjeGE7CQk8cmVjdCB4PSIxMyIgeT0iMiIgd2lkdGg9IjMiIGhlaWdodD0iMyIgcng9IjEuNSIvPiYjeGE7CTwvZz4mI3hhOwk8cGF0aCBjbGFzcz0ic3QyIiBkPSJNMCA5aDIwdjdIMHoiLz4mI3hhOwk8cGF0aCBjbGFzcz0ic3QxIiBkPSJNMTggOWgydjdoLTJ6Ii8+JiN4YTsJPHBhdGggY2xhc3M9InN0MCIgZD0iTTE4IDE2bDItN2gtMnoiLz4mI3hhOwk8cGF0aCBjbGFzcz0ic3QxIiBkPSJNMCA5aDJ2N0gweiIvPiYjeGE7CTxnIGNsYXNzPSJzdDMiPiYjeGE7CQk8cGF0aCBkPSJNNCAxMmg2djFINHoiLz4mI3hhOwkJPHJlY3QgeD0iMTMiIHk9IjExIiB3aWR0aD0iMyIgaGVpZ2h0PSIzIiByeD0iMS41Ii8+JiN4YTsJPC9nPiYjeGE7PC9zdmc+;rounded=0;glass=0;" parent="lypKQHH3KZ5u025BPs_v-25" vertex="1">
                    <mxGeometry width="30" height="24" relative="1" as="geometry">
                        <mxPoint x="15" y="18" as="offset"/>
                    </mxGeometry>
                </mxCell>
                <mxCell id="lypKQHH3KZ5u025BPs_v-28" value="Mobile Client" style="strokeColor=#666666;shadow=1;strokeWidth=1;rounded=1;absoluteArcSize=1;arcSize=2;labelPosition=center;verticalLabelPosition=middle;align=center;verticalAlign=bottom;spacingLeft=0;fontColor=#333333;fontSize=12;whiteSpace=wrap;spacingBottom=2;glass=0;fillColor=#f5f5f5;" parent="1" vertex="1">
                    <mxGeometry x="920" y="177.5" width="80" height="85" as="geometry"/>
                </mxCell>
                <mxCell id="lypKQHH3KZ5u025BPs_v-29" value="" style="sketch=0;dashed=0;connectable=0;html=1;fillColor=#757575;strokeColor=none;shape=mxgraph.gcp2.phone;part=1;rounded=0;glass=0;" parent="lypKQHH3KZ5u025BPs_v-28" vertex="1">
                    <mxGeometry x="0.5" width="32" height="50" relative="1" as="geometry">
                        <mxPoint x="-16" y="10" as="offset"/>
                    </mxGeometry>
                </mxCell>
                <mxCell id="4" style="edgeStyle=orthogonalEdgeStyle;html=1;entryX=0.5;entryY=1;entryDx=0;entryDy=0;elbow=vertical;" parent="1" source="2" target="lypKQHH3KZ5u025BPs_v-4" edge="1">
                    <mxGeometry relative="1" as="geometry"/>
                </mxCell>
                <mxCell id="2" value="" style="strokeColor=#dddddd;shadow=1;strokeWidth=1;rounded=1;absoluteArcSize=1;arcSize=2;labelBorderColor=none;" parent="1" vertex="1">
                    <mxGeometry x="280" y="450" width="210" height="60" as="geometry"/>
                </mxCell>
                <mxCell id="5" value="" style="shape=image;verticalLabelPosition=bottom;labelBackgroundColor=#ffffff;verticalAlign=top;aspect=fixed;imageAspect=0;image=data:image/png,iVBORw0KGgoAAAANSUhEUgAAAgAAAAIACAYAAAD0eNT6AAA+2klEQVR42u3dT2wceXbY8T3ooIMOOgiIDnPQQTB00EEHBdBBhyZbsbwrJ4otO7KtOJo1h6Qi2VBsIRAcJhABdTc9krFaWx5zx2SzsZZjxpK6GxMCEQIiYAwl0UxXC4QhDBSAQHggEAJDBMSoqrpUVWNX6nW3NPrPbrKqfr+q/n6AHzQez86wqov9Xv3+vPeDHwAAAAAAAAAAAAAAAAAAAAAAAAAAAAAAAAAAAAAAAAAAAAAAAAAAAAAAAAAAAAAAAAAAAAAAAAAAAAAAAAAAAAAAAAAAAAAAAAAAAAAAAAAAAAAAAAAAAAAAAAAAAAAAAAAAAAAAAAAAAAAAAAAAAAAAAAAAAAAAAAAAAAAAAAAAAAAAAAAAAAAAAAAAAAAAAAAAAAAAAAAAAAAAAAAAAAAAAAAAAAAAAAAAAAAAoI27jWB/3fBGag13qtr0KjXDWwr/70X562rDvR7+/XP15WAvdwrIntzkN3uGCuaZ4ZJ1a7hozQ+VrKXhor3S+dO6M1ywbg4VrXxuMtjF3QIyYGkp2NUO+ob3MBxBD8OXpKBuuGe4e0D6nbhu5oaLZj0M8k44gq2HbUpCkCuah7l7QEpJEK8a3kqPgf9dY7lu+DnuJJDCN/4wgIdv9Qu9Bf13Dj8cldwNaz93E0iJylKwOwzed3YQ+F8fDXdKZhK4s0A65EvW+d7f+LccGzKLwF0FNNdd5zciC/4vh/vg7tfBHu4woLfwrX8qosD/2mxAvmSPc3cBXYN/GKDDYP0k+uDfGbI3gJkAQOfgb16PIfi/HPmCdY67DGio1nAX4gr+L0bV8G5zpwH9SHCOM/h3h5MrtI5xtwGN1Bve5biD/yvLAae544A+clPfHoxwzX+rsZabDHZz1wEdgv9ysDcMzJtJJQBysoClAEAf7XP8yQT/F0cFr3HXAQ3Umu7N5N7+X45L3HlAg7f/onUk2eDfHpscDwQUkzfxMBibChKAp9x9QIu3/4qCBEDGVe4+oFC94ecVBP/2+OLx84N8AoDCt//JYJec01eRAAwV7Yd8AoBCtYY3oyoBqBn+BJ8AoM6JwrPjit7+2yM3+WwfnwKgLgF4pC4B8Ob5BAB1ZBpeZQIwVLRP8SkAqhKApreqMAFY4hMAFCYAnc5+yhKAfMke4VMAVCUA6oJ/IMkHnwCgdAZgXmUCwHFAYFATAMPz+QQAdYZK1qLSBKBg3eRTAAYzAQj4BAClMwAVtTMAHAUESAAAJJ8AxNz8h+ZAAAkACQCgIWnRq/QYII2BABIAAMnLTTkHFG4ANKUQEZ8CQAIAQMUsQNFaVpQE3OHuAyQAABRRVQxoqGCe4e4DJAAAFMlNbu5Nuh+AzDpw5wESAACKhQH5crIlgK08dx0gAQCgfBYg2J3cXgD7HnccIAEgAQB0SQI+bX00XLDW4576z01+s4e7DZAAkAAAOiUBhdYxOZ4XU9nfdTl2yF0GSABIAAAdk4CidSQM2GsRv/kbMsPA3QVIAEgAAJ2TgBvW/ggbBVWY9gdIAEgAgBQZKtinwwD+dFs7/UvWEqV+ARIAEgAgrbMBk8GuTiJgzvRQL2B1uGTd4pgfQAJAAgBkLBnIlZ4dkgCfL1nnpX6AdPQ7cd3MscEPIAEgAQAAgASABAAAABIAEgAAAEgA+AQAACABAAAAJAAAAIAEAAAAkAAAAAASAAAAQAIAAABIAAAAAAkAAAAkACQAAACQAJAAAABAAkAC0HX362BPtfndqfDnvlRtuNerTa8S/vV03fCv1Zre+XrDO8ITlW25onlY2uAOF+2J4ZJ9e7hoVYYL1pS0xR0qmGdyk9/syey1F+yjwwXzenjN80Mlayn8czW8Dyvdv74j90RaBfOUACQAmUgAlpaCXbWGey4cC+HP62x5TU1vtW54t+43Xb4IsxL4pr49OFyybkmwCwNdsMVwhgrWg3zBOpebDHal/tonN/d2g/5aD9feHfZKmBBdCa9/N08PQAKQygSgZrinw5/x6TavzZcZgruNYD9PWUqD3w1r/3DRnA6Dmt978Hs9EMqsQDoDf7BLgnh4HZvbu/ZwFKx1mS3hSQJIAFKTALSn+g2/HtE1mtWGe5YnLV2GivapMICb2w5+rwyZEUjT0kBu8tm+7rR+ENGYz/LSCEACkJEEoP7IORD+XE+ivk7ZJ8DTlg7t9f3ogt+L8VSWErQP/qVnh3pc6uhr5IuWITMqPF0ACYCWCYBM19cMdz226226N3niNA/+nfXuIJZRsNZzU84BbYN/e8mjn7X+vpOAZWYCABIA7RKAylKwu254RuzX3PRYE9WUbNyLLfhrHgRlzX+oaD+M+/plOYAnDSAB0CoBkON8CV2zXzPcwzx5mgXAonk4qjX/HsadgZr5eDMJKtkjPHEACYAWCYCc30/4upd48nQLgNZCUgFQRq7QOqZN8tOZ+ncSu35ZCuGIIDDoCYC7rkUCYHiLSV/7/cf+SZ4+PZy4buaSDP7tkwElS5sksF3MKOHrHy7abIoFNEgAHGUJQNNbHcC3/xfjIU+fHuSYXvIB0ApOFJ4dV/72H76JJ/r2//1Y5ckDVCcAYRBWlQDIpjvV1y8lfRVdv7/QDPbxBKoOgN/sURQAZSpc+amQoYJ9Wsm1yzJI0TrCEwiofANWMP39ylC+GSr8GZYVzoBwIkCxJHb+f6hSoOrrVzP9zzIAoMcMgOFPqAqAVcMbV3nt8gaudA9Ew5vhCVQdANulfgNlb8Gftj5SmgAVLUNhAnCPJxBQmgC4h5UlAF+q/fJTee2cBtAkAUh4979upwHiLPyz5UbIos0+GEB9ErDthjc7Wf9fVH3dshNfcQLwlKdPLbVvwNInwD6tOAEIFA42AgLKE4Cmdz7xt//md6cG8bp1OwUx8DMA7Z726oKg6m55ihOAgCcQ0GMWYHnQpr6ZAQAzACQAwMCrG36uU6Y29qBn3m+6h/RIetgDMPAzAOwBIAEA0J4FuJTA2r82dcA5BYBBPwVAAgDg1SRgOr7g71/T8HqfUAdgcFEHgAQAwCskUEce/BveZR2vlUqAg23QKwGSAAB4RxLgngmD1ObOA52/pnPjG3oBYJB7AZAAAHh3cFwO9taa7s1tNgxy5H8r/w79kx26AQ6yQe4GSAIA4IOkYl+16V+Rt9YtTgr4tYb3SKb70zS9rWAWgN3/mkn6NIDq3f8kAAC2NStQfewdqxnuaanlL8G+XVCn6R+/+3WwJ63XJTvyk1r7l+OHPEl6yRXNwwnuBbijy3WTAAAYeJK8SHtidv4PriROBOSL1rJsPCQBIAEAoFMS0Aj2h2/n6zHWQLjFXdbbcMG8HuOu//XclHNAq+slAQCAjvoj50ActQF0rIGA9wVFeyKGYPc0V3p2SL9rJQEAgO9nAr4O9tQa7kJUpY+rDfcsdzVdpEZ/mAiY0dT7tx7oNO1PAgAAW5CNjjtolexXm15FlhW4k+mUu2Ht75YK9rdb6W+oYJ7Re7aDBAAA3mlpKdhVa7jnwmTgQU/1EJreqqz1s9M/Q4nA1LcHh0vWLQnoPQQ1Z6hkLUqb39xksEv3ayMBAIAetJcGDPd0++hjw52SN3zpndAundz0zks9Ae5SxpOBonVEgnuYDFzrzg5UhgvWVL5oXZa3fV2n+kkAAAAACQAAACQAJAAAAJAAkAAAAEACQAIAAAAJAAkAAAAkACQAAACQAJAAANkkRXHuf+UdrTa/O1U3vJEX59/vP/ZPcgYeIAEgAQAyFvS7JXHvhGNzi0p4G7WGNyP/PHcOIAEgAQBSSgJ51fBWtlkLf7ne8PPcRYAEgAQASAlpYBMG8IeRdMNruAtSQpe7CpAAkAAAGpO1/Jrhr0XUCvfFeHq/6R7i7gIkACQAgIaqj71j0r8+4uD/YmySBAAkACQAgG7B/8vWRzXDXY8p+LeH7CeoLwd7udsACQAJAKAB2elfNzwjzuD/YoT/ncWs3Lf6I+fAICc0FyvW/rHPn+0bxGvP3bD2S2vgXNE8nJtM7z0gAQAGXBiYLyUR/L9PAtwzqQv2nb0RE51E6a2ZEqfW9FbDP+drDfdcFpOCkdnnB0dnW5dH51pLY+XWajiCV4bf+XvOg/GyM/LJTOujzAX8QuvYcMG8HgatJ+Hw3xHMnHzRMoaL9oQkBSQAJACA9mSHftxT/+9aCpBZh1QE/jBZkU2MfV6jX216FZkhSPvzcWHGyYXB/eEbAX/LMV5uLYxWrCNpv/6hgn06DFRP+w1s+aL56MR1M0cCQAIA6Pv23/SvJhn8X46md17n+yIVD2sN79EOr9OpNd2blaVgd+oCf8U5IEG838D/diJgV9K4TJArPTs0VLQf7jjIFawFWS4gASABAPRLAKI679/3LIBf1/aeNNxz7eAd1fWGiYTUVkjZW//6ToP/K2Plwmx6psWHitbJMDhtRhjo1nIF+ygJAAkAoI3Ozn8Fb//dt2MdCwS1+xvEcr3+WhqOQY6WnXPdNf0g4mGOzzraV4bMl6zz71nj3+GwTUksSABIAAA9EoCGe1ZhAhBIEyG9gr83EvOyx+pCM9B2Orz75h9H8H+ZBIxV9E2CZM0+nuD/fRIgSwskACQAQIbfdns+Ejii0b3Iyea9BK57SccNkLLLPwzQGzEG/5fLATruCchNfXswDEgb8Qc9e0WnY4MkAMCACoPRtNoEwL+mw32QTXo7aHrU//6Hpn9Ft2ehe7wvSGLIxkDdrn+4aNYTC3wl6xYJAAkAoDoBmFeZAEjrYC3e/hve5YSvfVOnWgGjc9bJpIL/i7oBOm0K7E79Jxn4fJlxIAGw1vgWBhSRs+pqEwB3SvU96NRB8DaTPwbp3tTlORibbS0nnADI0OYUyFDJWkw++JlaJL/JLHu8r1aCZfAtDKh681W9ByB881Y+C9I58qfg+n0t3n6kWI+C4N+pHqjBXoDcp62P1ARA28xNqq8P0a1sqGYGoGAt8C0MqJoBMLxxlQmAnEJQngCoXAZp+seVv/2XnWuKEoBgbNZRXgwqX7LHVQVAHY4FShBWlgCU7Nt8CwOqZgDa9e0VJgBfqq0ZL7vxY2x/3EsCdF19AtAyVCUAo+XWPQKg8gRoRGEClOdbGFD6BuyvKToCqHz9T2r1K02ANKiGGAZiR9kMQLn1lClwtaRMscIlkF18AwMqg6Dh3VK0Bj6hPPlp+scVn4J4pDT4f/5sn8Lg3y4MpEECsKlwE9yyDt8Bg7wJEhhoXzx+fjChAjivlwHWoDZ+t9OfugSg6a2qvH45iqc4AQgufqa2HLTSY3AFa12H74B2q+Nkr93JTaW/UyaQCUkXBNKlAJDqUsgkAAOeAGhUCGe4aN9LMPG5ybcuoAl5G09uM5y/pksRnG75X5YABnsJgATgB93jkAVrPYFrfpqb/GYP37qARqQxTwJLAX71sXdMl2tmE2B7E6CvMAFYIQHQR3cpIMZmSNamLhUQAbyh1vSvxjzlfV6n65UeACqPAepQCVFRFUBtqgGSALxuqGCeiasd8onCs+N8ywI6JwGGPxHHm79Onf/euN57g1wIaHTOvq4qARgvO8qfCRKAt7V7I0S6HGCv5Ir69H4A8AHV5nenInwz3pC1dm0THmWlgL0NHa5/vGwfVTYDoEEpYBKAd5Nd+hEdD5zXqf0xgB50jwfe2clbv3T70+G434fIhkQVzYCk/oIu90AK8iSfADgPdLh2EoAPk2p9Uq+g7yp/JWspV7CP8k0KpFi3XPCdPmYENuSfv990D6XlGmPf+/COdsALzUCbt6LxOft04mWAK9YREgD9E4CXMwJF8/Bw0Z7IF81H7ymetCFBP0wWLrPRD8gY2TBXb/h5qV8vbYTDN9jFMJA9rBnug05bYX9Cpvqlvn4ary28jvVBqoL4ptG51lJya/92RZfrJgHYZkIwGeyWZYL2oKQvgHTPdPj5RCoiNrxHknDodv1jFfeQnMtPIAFYu1ixtFkWIgEAAMhyx+W4iyDpvCdidM46GXNdAFOXqX8SAADAa2pN92Y8wd9dv/+Vp/2mqLFZezymJMCUvQa6XS8JAADg+5kAwxuJeDlgufpl66O0XH93JmAzyml/OW6o47WSAAAA3pgJaLcKXt5pASRptHT36yB1tc9lT0BEGwPrOq35kwAAALYkJxqkfLF07dtOnX+ppZD2ezA2a5/aTrngTvLgaF/6lQQAALD1jEDDnQqD+5N310SQY4TuA1k+0L340XbI5r2xOWciDO7Ge5YHNsLxMBxXRmbTk/iQAAAA+iLT+tJNUMYgXv/HlWD3hYpzQMZkis+BkwAAADCASAAAACABIAEAAIAEgAQAAAASABIAAABIAEgAAAAgASABAJB9UtZW6tpL+996wzuSxXPvIAEgAXidtP09UXh2fLhoTwwXzelw1IdK1lJ4HfPDJetW+OfVXFGvZk8Adkgq2nU75S19oEa+Xze8xarhjaep7j1IAEgAtgj8YVAPf9ZKODZ6vK41SQhyn/I9AKQ68NcM/952auBXm16FRAAkAOlNACSAdwO/v83rc4YL1lRucnMvTxqQElIDP3ybvxVBRzynbvjX5N/HXQUJQHoSgKGifWq4aJsRXecaSwNACsh6fneqP4hsNNyFNHbEAwnAICYAspa/g7f+9wzbzBfMszxxgKZkyn47ne96HE8WmsE+7jJIAPRNALrBP67r9WVmgacO0O3NP3xDD4P0ckzB/8VYYjkAJAB6JgCdaf+o3/zfngnIFc3DPHmARsLgPB9z8G+PquHdTvssiRx/rDW987Wmf7Xa9K/UGu45+XvMcJAApDUByN2w9ke45r/VeJqbDHbz9AFaBH/3dBLB/+Vo+sfTdH+6pyEmepwheShJQRZrI1ysWPvHy87IWLk1NV62K6NzraWxsr3Y+Wv7+mjZOfdxJV07vkkAXt6HSpLXnS9al/nmBRSTKfkwaD1NNAEwvKU03JvuhsjpbZ6GcKoN93p9Odib5udjcjLYFQb5S2HQfxiOoIfhS1IgyQAJQDoSgFzp2aH4p/7fGpscDwRUv/033HMJB//OUkDzO603A7Wn+MMgHsG1bt5/7J9M47MxPtc6Gwb0lR4D/9tjtrU8PuvkSQD0TgCGi+aMimtnFgBQTKr3qUgAwnFH2xmRhjsV8bX6UkkxLc/Exc+CPWEAr2878L8xRsvOtMwkkADomgBYayqufahkLfINDCjS3fnvKEoANnQ8ESCJSWyzHg33uu7PxIWKc0De3KMK/t8Pe3Hs82fabZIc9ASgU9tf2fX7uclnbJwF1Lz9u2cUBX8tNwPKrv7Ylz4arrbFUCRA72jKf4sxPtd69HFFr93fg54A5IvWFZXXP1S0TvJNDGQ04H04AfDOa5MMNfx8BKWPexlmzXC1OwctU/SdXf3xBP9X9gVotfQz6AnAcMG6qfL68yXrPN/EgJIZgHa9f3UJgOFP6HAfuichniR33e4D7d7+y62p2IP/yyTAHicB0CQBKFp31N4D+xrfxICKGYCEiv/oXhQoTIRGkr52mXHQ5Tlor/uXW05iCUC5ta5LvQDFCYCv+vplI57Se1CwpvgmBhSQlr1qlwDcm1okQvH1P0hFLQQp5JNg8O8OR4s3P8UJwKoG119RfA+u8k0MqAh80R9367MWgH9F+dt/wzui6Pp9HUoHdzf++cknAK0NHY4Ghm+g6wqnv1fUX795nT0AwACSs+lKZwAarvJqcXXDvzbImyC7pX0DFUOHIkH5orWsbAd8wXqg/vrNSyoTADmGyDcxoCQBaO98V7gJUP1ueIWFkMIEyJtRnwC0FlQlAGNzLeV7QJRugtNg/Ts39e1BhTMgJk2BAEW6u983FG0AXNHhHiha/9dmH0AYiDeVJQCzrWXlb8AF69ygn4GX7nyKEoB7fAsDKgNgjJXvUrEBUF0lRBlPVV67FOVRFvy7pwGUvwFPfrNHQSMcGRs5Tcojq9oHkC+YZ/kGBpROgfs5FRvgdCmGo3YJxDNVXnv3+J/KBECTWvj2vcQDYMm6pct3gJTjle58SW+AzGnaHwIYrFmAhruQ7O5/r6LRDIjKBEBpAPxkpnVMdQJwsWLtVx4AO+vgSc4COLkb6q/7jSRoItkNkPZpvnkBLYKgezihMrgynLuNYL8+1z64CQAzAK8EwJJ9O8G33wndvgNkM15SewHoAghoRs7kD8rRPxKA7ylOAFZ1eQ66ewFiD4D5omXoOvWdKz07FP9SgEz961EFEsBrSUDMlQEbrnZlP0kAWmsKE4CHWgXAzlLARozH/tZzn7Y+0vk7QE4mxLccYpuSZPBNC2iocyzQvxfXmXf595MA6JUAqCkDrFc54FdJYZpYkgAJ/ikJfieum7kY7sFTgj+QAhFXx/Ol4qCu1zrwCcCcfVpVAjBasY7o+Ex0ZwKeRDrtP+UcSNN3QJT3QCoeMu0PpMj9x/5JOae+wwC3XGv6Wpf6HPQE4OJnwZ4wGJuDvP7/zgAoewJK1q0dToc7csY+rcfd5OeWWv076JfwZKhon+LbFEih9pJA0zsvVfv6DfzVhpuKIh+DngAImYpPvgqgk4omMN034Uo7mPex1j1cNKflf5uF7wE5IZAv2SNhIrCw9X2Qa7fuDBXMM5zzB7IyI9B0D9UMf6JbO//J9yWE3fX2m77hPpCTBF88fp6qLz0SAKkIuLlXqvIluPb/ZDJlwUFmBOTseju4Fe2H0sr3+9kB25Rpfgn6Ut1O/tmsfg/Itck+CSmhHF7zlfDar4V/Xm5fd6F1jKAPgAQgRQlAexYgfCNPKAHwdegCCAAgASABeJEElFu3Yt/4N9u6zFMHACAB0IhMy4+V7cW4gr8cOeSJAwCQAGiWALxIAuKoDTA6Z1/naQMAkABomgC8EAbtK+FwIgj+m6Nl5xxPGgCABCAFCYAYmX1+cGy2dWe7m/3G5lq3dej2BwAACcA2SMW+MKBPhWNl6/P9rWWpKyDJA08XAIAEIMUJwNuzAvap8bIz0ikgFI5Z5/zonHXykxm9G90AAEACAAAACQAJAAAAJAAkAAAAkACQAAAAQAJAAgAAAAkACQAAACQAJACZlvu09dFQ0T6VL9kj0gp3uGBNSVtcaY9LO1wAmbTQDPbVDW+k2vQqYeBaCsfTWtNblT/Dv79Ya3gztYZ7Tv45EgASgEwF/RvW/jDYT4SB/+Fw0Qq2GBvhuCNJQubuQ5jcnCg8Oy73YrhoToejPlSylsLrnR8uWbfCP6/mitYRnhggM2/I7ukwUD3sI6j5khDUDT9HAkACkO6At7m3/ZZftJweAv9bI1+0jBPXzVzq70MY1MPrqXSTm16ufU0SApkt4SkCUqj62DvWfdPfQYBzH4TjMAkACUDaSOBuB7JtBP53jDvh2/Pu1AX+MIB3A7+/zet2ZIlEEimeKCAtwd/wxuVNPqIgZ8rSAAkACUBadNb3tx303jsbIEsJabkHsoQxXLTNiK5/jaUBQHNLS8GuMChNxxHoqg1Xy37wJAB4LfgXrStRBv63AmEKkgBZy486AZJkIl8wz/KEAbq+DTfdm7EGvKZ/lQSABEDft17rZPSB7/UhGwl1PinQDf5xXb+fxc2RQAaCv3c+gYDnV5vfafUFQAIAkZtyDkQ45b3FMKf1TIBk2j/eBEjuca5oHuaJAzTxxePnByNc899qbOp0VJAEoD/S8vfCjJOTFsDjs62rY+XWldGyc6799z5/ti+tvwPto2yJBP/Om7Bua+Ldo44JJUDW0zRuigSy+fZvePNJBr264d0iAUhPAjAy+/zg2JwzMTbbWg4DfrDFeChJwcVKeja85Qr20QSDf2cpoGA90CwBqiR5/fmidZlvXkCxesM7oiDw+TLrQAKgdwIgQTx8u58OA7rfQ+B/czijc/b1jyv6HwGTgjZJJwAyJPHQIgEqPTsU/9T/W2OT44GA6gAoFfwUBD5dTgWQALybTPFLEN9G4H9zbI7OWSe1ffuf/GbPdgv97HgUTC1+B8IEaEbF9TMLAKgPgBuKgt9TEgD9EoDJyWBXGLSnIgj8rw5/dLal5Zf9UME+rST4d9fC9UgAIit41N8ySMla5BsYUBX8mv5xlcFPh2UAEoA33/xbdyIO/i+HLAnodr2dmvbKEoBAdV2ATm1/Zdfv5ybTu3EUSPvb/yWVwa/acM9qcA9IALq6u/qDOMf4XEurYjCq1v+/3wfQOqby+mMufNRDXQR9l4eATJN1eKUJQNO/QgKgS/B38tvc7NfvMC/M6nMOPF80HykNgAX7tNIEqGDdVHn9+ZJ1nm9iQEUC0Gntqy4ANt2bJADqddb9nScJBP/ucLQ5AhcGodVBDoDSqEjl9Uu3Rb6JATXBb15xAJzW4B4ovH5/TYu3/7Izklzw7y4FzDp5PWYArGW1MwDmGZXXLxvxlCYABWuKb2JAxQyA4d1WGQDrhq88+68Z7rqye9DwHunwHIQBeTXpBGB0rrWkw7VLQR6VAVA24SmeAaionQGwrvJNDCgJfv6E2iUA77z6e+AtK9sDYfh11dc/WrGOJB38XxwN1KF0sKoz8C83AX7a+kjp9RfM6+wBAAZQ3XDPKJ4ByGmQBN0b5D0QY2XnmqIEIJBiQ6qvP1+wzikMgMqXgPJF89Igz4AAA0ua8iTYBOjNYVaW1DcEqTXcc+oSAF/5l99Y2V5UmADMqL5+OYeuoAxuZ5Ts28qvf+rbgwo3AJo0BQLUToEvKQqA81rMgiwHexUlQRs6XL+K9X/t9gGUrCVFZ+C12AgpFQkVJQD3+AYG1CYAl9RM/7tndLkHshaf/PXr0RExonr/2x1alMIdKtqnFNTBX9bl+Ve1DyBfMM/yDQwoJNPwVcNbSTgALut0D+433UMJzwJsyvKLJglAoHCYujwDSc8CnLhu5nS59u4yyGbCb/8ruclgF9/AgOpZgITXwesNP6/fPUiyK6I/oct1K04AtKmEKK15k9oLIEcPdXv+w4A8MUgVEAG8om54iwkFwDtaXv9ysDeRmZCG92hpSZ83HxKA7+VL9ngyb776NcCRzXhJ7QWgCyCgYQCUFr0xr3sbd78O9uh6D7pLAWaclf/uNoL9Ol0zCcCbb8Jxdge0zVzp2SFdn3/52eJfCpAEaHMv37iAlgEwpsp4TW9Vt+D3Lt0WyTEkAe663F/drpcE4K034V3DJetWHGf+ZZlB9+dfuvPFtxSidwIEMBPwyDkQQ3W8h2kI/q8mQlEuB7RnPjS9fhKAd8uX7JGoAqF0HMzdsFLz/MsGxfDn3og4AXhK8AdSQKbpZa0+guAnO+undVrz7jkRkiWRzsbAnZwOcGoNd0qHgkckANuYDWgXyTHrO2h0sy77CtK4271bIOhJVJsemfYHUub+V97RbRcKargLNcM9nPp70J4NaNcJ6CcRcKTVcvVLtXXeSQAiCoaF1rFu29zNHs/4G9LkJjf5zZ40P/uSuEitfklkthn8n0iNBb5JgRSrPvaOVRvu9R42CS5Lh796wzuStXvQmRGQ45Lt3gHLr++V8Ndkmr8za+Ke1nmjIwnAzgKiVO+T4N7dJzDf7SZYkb72smygurlPTNe9u70kUrAWwmt1tlrnl2RJ2hxzzh/IGFnLlgB//7F/Urr5yZl+edPXpbANSAAQZzLwzR5p4CNNlPJF60o78Slal6Wqn8yUEPQBgASABAAAABIAEgAAAEgASAAAACABAAAAJAAAAIAEAAAAkAAAAAASAAAAQAIAAABIAAAAAAkAAAAgAQAAgASABAAAgHeTVr9fPH5+sG74OWkPXG1+d+r+V97R6pfpbANLAtA/afmbK9hHpde9dMU7cd3M5aa+PSid8vgNAYAMkeBeM7xLdcNbDP/0wxG8e/hrtYY3Iy2Sl5bS0RaVBKCHgD8Z7BoqWvnhojk9XLTWOn3v3zn8oZK1KO1xJUngNwcA0vq23wj2h0H/1oeD/rtH1fBW6oZ7hgQg3QnAUME+HQb2px8I+u9NBiRhyN2w9vObBABpeus3vPEwkG/2G/jfGg3vUf2Rc4AEIF0JgLzBDxXth9sI/G8M25QZAX6jAOz8rfTrYE+t6Z0Pg8t0OJbb086dYOOEf381/HNJ3lrTNA2tE7lnMo2/48D/+tiQPQMkAOlIAHKF1rHhgrW+8+D/2qjIUgK/Yf2ZDO/Z+KyTD5+VqbGy8yD8czUcTjj87l8/HJtr3R4tt85c/CxgDwayqWa4h8Ngf68d6HsPPJu1hjslU9ncwd6Cf3edP4hh+OFneJoEQO8EQDb2dabvIw3+7SEzCiQBvfm4srm3E/Rb6308T85o2ZkemX1+kDuI7Lzxd95I/R0EH7Pe8C4zI7BFkhX9m/+7PocjJAB6JgC50rNDMmUfR/B/dSaA37Stnkn7UvhsbO7gufJlVoAZAaSaHC/rTutHFYAepvW4Wty6a/5B/MNfW2gG+0gA9EoAcpObe8PgvxJz8G+PfNG6wm/c2z6ZaX00OtdaivD5ejpWcQ9xZ5G+t9Gmf1zeGGMIQps6TkUrnWVpBPsj2fDX+5gmAdArARguWbeSCP7d4XA64HWjc9bJ8HnYiOEZM8fKznHuMNL15h9P8H85ZKNgZSnYzd3+wQ+6R/2CBIcvxYRIAPRIAHJTzgEJygkmACwFdLU3+c21bsb8nJkXZs3D3G1oT6aHwzf09YQC0bIugUiVbpEfP+EEQMYdEgA9EoDhojmTcPBv1wmQxGOQf/cuVJwD4TNgJPSsrcjGQiIMtCaBIeFAZFYb7tkBvt+XFAT/9n3XYQZm0BMA2ZUfBuMNBQmAjKuD+nsXvvWf3eFGv77HeNlm1gU6T0X7OUXBKKg2vYqcOBi8ex7bsb8tx/3H/kkSALU6JX6VBP/2scBB+337uBLslqN6qp630Yp1hEgDPd9GG+6CqmDUHU90O6YWp/YRSzXT/y/KBd8mAVBruGDdVJUAyJDTB4Py+ybr8GNl54nK52203LpHpIF2ZC1ecfB/MRw5Esc9T2K4D0gAFCcARfue0gSgOBhvpONlZ6SzI1/t8yY1Ai5WOIEBzVSb/hVNEoAXY76+HGT67UTlksuLTZgkAGpFU+9/J8sA1sks/45JMZ7wc57XIPC/shfAGSHiQK/p//BtULMEIJAiRHIkMbP3vOGeU31/SQBUzwBYqyoTgHzJOp/dt377qOy+1yn4swwATRMAb0O7BKB7Zl1mJzKadJ0mARj4BOCJ0gSgYJ3L4u/W6GzrcrdhT6DheErEgW4JQKD3cB/oVMI2CtXH3jHF93VpwBOANeVLACVrUWUCcOK6mcvS79TY58/2hZ9rXdPA/3IfABEHJADbqGOva1vb7ag/cg6o3mehQQKwrmwtdq71SIMZgIrSTYBT32amEJeU3JWkTvPgr20bapAApGH4YRJwLSudBROsuviuhGpC+Zf2bGtZ4RdxXfX154vWZYUJwEYW2gNLOd+xOWdC4yl/EgCQAEQ9fZ2FzoIJtAB+79ChDLNsiFI4A3BT9fV3+wCoSgDupP33R47UjZXtxbQEfpYAoGsCsJnCJGBDh2p2OyE/v6IiQCs6XP9o2Tmn7otYjy5t+aK1rOQIYME8k+bfnRg7+LEJEIOWAGh4DLDn3ezuzbQuCcjPLcE46XtWb3iXdbh+aZCiaOp2Q5dnIF+yRxQkAGu5yXR242xP+ZdbUykM/BwDhK4JgD+R2gSg017YkE11abz30gwp6bd/nRImRbu2b+ly/Z2GQPYK5/+3lnAHPwoBYTBoVAp4J2MzrZ0FJYFJ7D41XK3Ofo9V3EMJzwJsynExne7BUNE+lVjwL1pGGjf/hW/OZ5Lu4BfH+r9uzx7wIggtZiAJkDGtQ6vbbSRgsRdjkq6LOl7/2Kwzk9iX8JwzoeM9GC6a0/EnALaZKz07lKbfDdUd/Jj+x4AkAMpr00da575muIdTeP/j7A74UNe9Et29ACtJnP2f1PTtV97KYy4M5Ket9n97dkjtUdFI3/5pBwytVQ2/nqEkwKw1vVStddYN90z7544h+N9tBPu1/7KPt2Pbmu6d2HKT3+wJk4ClGIK/ky+YqVoeG5t1zmvSwS+imafWbSIMtCbldjXuC7Dtind3vw72pCYJaHhHpOphlNP+aTkl0a3mFseX/rokGGm4B51NgREuBxSs9VyhdSwtz3+7g99s605mAn9nrMh1EWGgvVrTPx7TW6iyITvfJbCmLBGb3smSQPt4oWYb/vqYCYhyOcBIYw/2oYJ9eoenA3wpNZy7kZ5rlylyHTv47XCYaUk+gU4S0OlUZ2ZsJsDR5fx7r7qbA+f7+Sy6yc7ltG2EfFV7T0BnY+BOTgc4cl5cNpGl9T7IbEC+aF4KA/nTfqb7w8ThXq5opmoPTLeDn5O54K9JwSmgL/e/8o6qrVUf12yAX68vB3vT9FlIMK82vzsVBvfb3aJNy+1lgqa3Kuv7nSTBn9ChvG8MswH1PhMBZ7xsVz6ZSX+p6NeSgalvD4bB/Wo45rv7BFZlSCXBoYL1YLhk35ZZg7QV+OluAK1nLPC3K/7x5o9Uk41jGToe+Er1wDBwNn0y8xQFCSkb3O4d0NkV/moXwbV2cZjZ1p3xOfs0a60pSvBS1MGvzzHPc4hMkA1kYbC8GvMRNSWdBeW6+ISBZMlRzPHZ1tU0dfDrdcqfSn/IpM7mwOh2p2tURnhR9yNyQFaktINfL82lnlyYTde+C6Avsjs9Y7UCusNdrzf8PJ8wEJ/xWSf/xvJNkI0Kf840U/4YGLLLPJNLAg13Kq2dBQFdpb2D3wen/OdaZ/mEMXDklICKVrYJjIfVL7O1gxxQpdvB72EGg78xMputUzdAX6TCXvecetaSgE2phcAnDGyfnMrIQAe/d7aTnpxkphBoqxreeAYLB8kGwVssCQD9keJLUvs+g4F/Q5IaPmHgDdJ9LwyaTzI4G7CctQI7QFxkWjxDHfxeHQ+zVlwKiFR7SaDhzWQwCTCrDZfNPsAHZK6D34s2vnP2dab8gR5JsMzikoB01ktTZ0EgCXIETsovZ/Ctf12OLvIJA32SafO64RkZnA14IssdfMJAZjv4SWGfB2nsIgloQzbQyUa6DCYBjmx85BPGIBubtccz2MHPlzLFfLpARLrthTcymAjMp62zILBTGe7gt0r7XiAGUlyn27o2c50FpSgSnzAGwSczrWOdQJm54F+XxIZPGIhJu7Ngw53KYhlhKY/MJ5yMsc+f7ZPGK9JvnS/t5GS0g58zOtvidxdIijTekQY8GWwq9EAaJvEJR//WKUexpOPaewKQrEMbY3POBB3Zotfp4Oc8yOBb/4psYuQTBhImLXilFW/2kgB/rW74OT7hCN44O6Vkt7PD3Lgw4/AZRPLWn80OfuGYp4MfoFit6V/N5JKA4V+jjPD2yFv8+FzrURRHuajetj2vdPDL2pS/KQWL+IQBfZKA4/LmnMFeAot0FuzP2Kx9KuJqcuuyhMCd7Z0kTdns4Oc8YYkI0JAcp6safj2DRwU37j/2T/IJb002Y8VWzrXcOsMd3lpWO/iNlp1paVLEJwzonAg0vMsZXBIIak33JksCW775x7rbe7xsc1zzPdod/MqtWxlc698cn2vRxwNIURJwpGp4KxlcEjDqj5wDfMKvax/pS6aJzDrlXd+W4Q5+xoUKv29A6rQ7CxrefAaXBDbrhst09Cui2fDX++5v7vhr9/5sBjv4ybhFBz8g7bMBhjeSxc6C4ZiuLLEmKWvzSQcHlgIy3cFvY3TOYs8NkBXSfa/ThS9zScDyoHcWVNNJzl4c6KSr3cGvXVQpa8H/Icc+gQySt2V5a85gEmDWmt5AnkuWxiuqgsWgBoqsdvALn6VrTPkDGVdtuGczuiRwR/Y9DNSbaLu8r5qgMV52RgbpXkvPhNFy614G3/rXpVoh34zAgJCd9LKjPmtJgJx8kBMQAzQD8ERdAtBaGJT7LHsestnBz3kgjaH4RgQGjJypD5OAWxmcCXAGpbOg4jKzKwMR/LPZwc+X6+JbEBhw1eZ3p6TaXvZmA/y6VEfMbPAP39xU14TPdHLVvr+Z7OC3SmlnAN8nAV+2PgqD5sPsVQ/0VqVPQhY/s27xH6XBJKvd4DLcwa8uexn4xgPwGlkSqDbc61nsLCgdEzP3hlpxD6kOKFmrDd/p4Odcy+CUvzNWti/xLQfgg+oNP18z3PUsdha82wgyU8ZW3uRU14jP0nOf3Q5+rRWpW8A3G4CeSKAMk4AH2dsg6K5LgpOZWQC159GfZuY+dhopbWQt+Eulwqwu0wCImUydZ3JJoOFOZaGzoDRrUdcetnUv7fevM+WfyQ5+5tisc55vMAA7TQKOtzfTZe+44EPZ/JjqBGDOmVDYH/5cmu9du4OfwgQqtiFdCSvuIb65AERCjtPJsbosdhasGe7ptH4unZr0ikrHpriATFY7+IVJ2XTWNmYC0CURaHiXpdBOBjcI3krrkoCiPvT1NN4rWQ8fm3VmMjjlvyldIfmGAhB3EnBESu5msbPgF4+fH0zb53Fhxskl/fYv0+epu0/tugmZ7OBnXKg4B/hmApAIabojzXey2FlQmiWlbhagbC8mt8bszKRvliSTHfyC8bnWTTr4AVBC2vBmsrNgw5tJU2fB7hn2JCrXPU3TsbL2lH+5NZ/Bt/6N0TnrJN9AANQmAYZ7WKbPMzgb8ESuLT2zAM7xmCvYbaZpd3lWO/iNzrWWJOHjmweAFipLwe4wYE5nsbNg1fDG0/I5yEawmKa6NyXBSM19mG1dzmIHPylTzJQ/AC3J+nnnaF3mEoH5tCwJSKe3iJcDnqblzT/DHfzWpEER3zAAtFZ/5ByoG56Rxc6C97/yjqbhM7hYsfZLpb4dv3HOOjNpWfPvnoZYy17wDxOaFNdcADBg5Ey9nK3P4EyAL7UQ0vI5dNbB+z4hIFPn9bQc9ctwBz+5nit8mwBIpfuP/ZNh0NzIYFOhBwvNIDVvZbJpbLzsjIyXWwvdjXHOa3XjpWNcuXVPyvum6W1Trks2xWVwyn9Vkje+QQCkmtTbl7r72UsC/DXpk5DWz0XaCae5U5wcg8tiBz9JxOSz4ZsDQCZ0lgT8a1nsLCjXlYXOgmmR4Q5+jhQs4hMGkEn1hp+vGe56BnsJLKa9s2AaSMnbTHbwK7eeSmMnPmEAmSZr57KGnsENghuy54FPOB7dDn6bmSvnW7YraV6KAYC+1Zr+1QwuCQS1hjvFkkB0pL2ttLnN4Fu/OTbrnOcTBjCQqo+9Y3K+PoNLAobUQ+AT3pnMdvCbbS2nsaMiAESqvhzsrRp+PYNLApt1w6VH+zbJscXuEcWM7fJ3pmVWg08YAF7MBhjeuNTez2AiMC29EviEe5PhDn6b43P2aT5hAHjXbEDDOxImAisZTAKW7zfT00lP3Vt/u4PfSgaDvyEnGPiEAeADpOlOtelVMpgEmLWmx6av98hoBz8ZU3TwA4A+SLBsB83sJQJ30tJZMAlSerhbojhrgX9DqhXyCQPANsi0uUyfZy0JkGUOWe4Y+OBfdo5ns4OfvSh9CvgNBoAdkA10spEugzMBsuHx0iB+ptnu4OdcY8ofACIkR+rkaF32ZgP8uhyFHJTP8WLF2r+NFsVpGGsyo8FvKgDEkQQ8cg5IkZ3MzQZIMaQUdxbsVVY7+IWB/0Ga2igDQCpJmd1a072ZwSUBX8ojZ/Ez63bwm8rgW78vpxf4rQSABEnjHWnAk71EwH1wtxHsz8rnlOEOfqtSt4DfRABQQFrwhkFzKYNJwLq0Tk775zNabp3JYgc/qVT4cWVzL7+BAKCQLAnUDf9aBjsL+mntLJjhDn7O2Kw9zm8dAGhE3phrhr+Wwb0BD2WmIy2fQ7uD32xrOYMb/Z6MVqwj/KYBgIYWmsE+WUPPYBKwEV6X9o1kpL99Fjv4jZftijQp4jcMADRXbfpXMrgkENQN75aOSwIZ7uBnjpadc/xGAUCK3P/KO9o+X5/BzoJfPH5+UJf7LNPimezgN9taHpnV5z4DAPogFfZqhn8vi50Fqw33rPLg3+ng52Qu+M+1bstGRn6DACDlqoY33q29n61EoOHN9NJZMDcZ7MpNOQdOFJ4dzxfMs/midXm4YE0NF8zr+aJ5aahgnskVWsfkn+nlfsoRuDBQ1jM45b85Pmef5jcGALI0G9DwjoRB82kGZwOe1Az38BsBf/dQwT49XDRnwkC/Ply0gj7H6nDJvj1UtPK5NxrbZLWD3/hc65EULeI3BQAySN6Wq02vksXOgp8vPb+SL1nnw6BfDwO4s42g/55hm+Gfd04Wrd/65HP7P2Swg5+MKTr4AcAAqDW987KOnoXgP/+/3ODf/rUT/JOpqAL++8eJ8L/x639qB6OzmQn869KgiN8IABggspNedtSnNfDf+8oLrlWd4Ic37NgD/5vjF8NE4Dc/CxOBVAd/e1FaE/ObAAADqLIU7A6D6XTagn/pi+fBr95KPvC/OX54wwrO/Xn6OviNzTkTTPkDAH4gVfbCwLqpe+D/m0duMB4GMdWB/83xqz9NzWzAmmxi5IkHALxUf+QcqBueoWvw/8v/4QW/cdvWLvi/GL980wo+mdG5nG9rYezzZ/t40gEAb5Eyu9KBT7fg/+eLbhhg9Q3+L8YvfWoHH39uazflLwWLeLoBAFu6/9g/2WnAoz7431h4nsgO/yhPCvz2tDZJwOp42T7KEw0A6Jm04K0b3qLK4P/TB8+DE6X0BP+XSUDJDs7/THnwn6eDHwBgW2RJoG7411R0Fiz/dzc4+amduuD/6lHB31GzJ8AZm7XHeXoBADtWa/rHa4a/lmRxnzM/TW/wfzF+dDPp0wHOkwuz5mGeWABAZBaawb6a4T6IO/jfb3jBv/pZK/XB/8U4/RM7oV3+doUpfwBAbOoN73KcSwJX/srJTPB/Mc7ejjUJMMfnWmd5MgEAsbv/lXe01vRWow7+c3/rKtn0J+v1P7phBadu2u1x8o/s9ka+KE8GxFIjYLa1PDL7/CBPJAAguZmA5WBvGLTno0wApMlOEgH/5Kf2P/z4c/vrs3/W+tswMD9/V3CVtXtZipDmP78UwWZEKV0ccQJw6+NKsJsnEQCgRNXwxqUd706D/8/+mxt/oZ4b9j9cnGvVLv+19Y9e/PxSHW+s7Fxr757/QMD9l9N2e5Zgu//tfCmyUwGb43P2aZ48AID62YCGdyQM4k92kgD89nS8b//h2/z/+cOfP/+F913DhYpzIEwEHmwVgH/jz7a/PBDBhsCH8nPyxAEAtHH362BPtelVthP8f/JfnsdYlMcKwrf+v+n1OsIgO7VVIJZyvyf/aBuzAOHYQYGgKTr4AQC0VWu458KgbvaTAHwc07E/Cf6/+/PWzX6vQWrnbxWQZTp/O3sDfuWW1W/gXx+fdfI8WQAA7X3x+PnBMLAv99riN65a//28+b9pfK51c6vg/OO/sNsnCPo9cdB78LcXL1as/TxRAIDUqCwFu6uGd7uXZj9xBP/zn7dWdnoNo3Otpa2CtGwO3MZ+hC07+I3Ptq4y5Q8ASK2a4Z4OA/3m+xKAfz0X/fT/j27Yf/+hDX+9Gqu4h7Y6HSBDNvf18/P92k8/uBlwbazsHOfJAQCkXv2Rc6DW8B69q+zvD2/YWk39v6mXpQDZD5Dvo4DRDz997zJAXY4l8sQAADJDOgvWGu7UqwnAn/zX57Gc9X/1nP9OdY4HtvyoZwFk/8CrU/6y8ZCnBACQWfcf+ydrhrsuCcC/vxt93f/f+YvW30X9M4+XWwtbJQD9NjD6rT97mQCsjJftozwZAIDMu9sI9tcNb/H3Y2j883t3nH8X9c87NmuP97Jrv5/TDN0GQfN08AMADBRZEviNP7X/Lupz/1FO/79MADqbAbdMAP7pH/f+s566YT3gKQAADKShkrUUZQLwz/7Y8uP6WXtJAH7tT/raB1DhCQAADKQwCK5GmQD8i9v2tzEmAGu99Ano9WeV5IcnAAAwqAmAH2UCEAbg/xdjArCyVQLwm5/1MwNgr/AEAAAGNQGIdAPg2dv2ZowJwGq0CYC1yhMAABjQBMA2o0wAfuUnthtjArBlRcBf/9O+EoAnPAEAgEFNAFaiLgIUx8/5cWVzby+bAKXTXx97ABZ5AgAAAynqUwAy/uCvWmej/jnH5+zTvSQAP7xhcQoAAICtZwCsO1EnAP96rvWfo/45x+Zat7cK/iN/0epvQ2PBvM4TAAAYzASgYN2MOgH4tZ/arSh/xo8rwe4wwK9vkQCsn7pp/6yfnzNfNC/xBAAABlK+aF2JOgGQ8ft/ZV+M6mccLTvnPhz87cWLFWt/+N992s/POFQwz/AEAAAG0onCs+NxJABRHQfsvv0/fU/w98dnW1fbiUzJHun3Z8x92vqIJwAAMLDCYLgWRxLwez93Znb6s42VnWvvCf5r4f/vuPwzucnNveF/b6Ovt/+i/ZBPHgAw4AmAORNHAvCjG/bf/8F/tH+0g+B//D1n/+tyLLAT/INdwwVrof+fz57gkwcADLShonUyjgTgRWGgP/z581/o92camX1+8B0b//zR2dbl15KXknVrOz9XrvTsEJ88AGCghW/Ru6OuCPjmqYAr/8n+x73+PBdmzcPvKPu7MlqxjrzyM+/a/gkGegAAANB5ky5a83ElADJ++ab1972cDOgW/DHfCP7zFz8L9nwf/GXN36xv++cpWFN84gAASFAt2EfjTABejB//rPW/37UkcKHiHJC1/bfe+sut147q5UvW+X43/L0xHHb/AwDw2iyAfS+JJODkp/Y//Phz++t/85fOb1+YcXLyhv/GZj9jbNY5L0cAO2/8z/bli9blSPoWFKybfNIAALw6CzD17cEwSPpJJAEvxi9OWe6pm/b//ec/sf/nr9yyy7/8qfm7+YJ1rl2gqGTdCv9cjvC/tynLB3zSAAC8OQtQsm8nmQAkOSSp4BMGAOBdswA3pKRufCcCFI41Oe3AJwwAwHtIk5ysJQBDRfsUnywAAFsIg2YlOwmAfY1PFACAHkihHamXn4EEYJ5PEwCAfpKA9n6AeBoFJbTpbzk3+c0ePkkAAPpNAorWkVRuCixY6xT8AQBgB04Unh2XgJqiNf8Vmv0AABDFTED4Nh1xUZ54dvuXrEWK/QAAEGUSMPnNnh014Yl9mNOyeZFPCgCAGMixOs2Cv58v2SN8MgAAxD0bULCPDpWsJQ3e+uvSw4BPBACABEmFPRV7AyT5kM2JfAIAAKiaDZgMduVL1vkwMK8mEPyfDBXs09x1AAA00jkyaF6Xo3hRFvQJ/30TUpOAOwwAgO4zA1PfHpTALUfzurMDfg8B32n/swVrIQz8lynmAwBAFpKCyWf7ckXz8FDRysuygYwT182cFO7h/D4AAAAAAAAAAAAAAAAAAAAAAAAAAAAAAAAAAAAAAAAAAAAAAAAAAAAAAAAAAAAAAAAAAAAAAAAAAAAAAAAAAAAAAAAAAAAAAAAAAAAAAAAAAAAAAAAAAAAAAAAAAAAAAAAAAAAAAAAAAAAAAAAAAAAAAAAAAAAAAAAAAAAAAAAAAAAAAAAAAAAAAAAAAAAAAAAAAAAAAAAAAAAAAAAAAAAAAAAAAAAAAEiT/w8Mp7Wg7M8jhQAAAABJRU5ErkJggg==;" vertex="1" parent="1">
                    <mxGeometry x="290" y="460.5" width="39" height="39" as="geometry"/>
                </mxCell>
                <mxCell id="7" value="&lt;div style=&quot;text-align: left&quot;&gt;&lt;span&gt;Prediction Endpoint&lt;/span&gt;&lt;/div&gt;&lt;div style=&quot;text-align: left&quot;&gt;&lt;span&gt;&lt;font color=&quot;#a1a1a1&quot;&gt;Vertex AI Endpoint&lt;/font&gt;&lt;/span&gt;&lt;/div&gt;" style="text;html=1;resizable=0;autosize=1;align=center;verticalAlign=middle;points=[];fillColor=none;strokeColor=none;rounded=0;" vertex="1" parent="1">
                    <mxGeometry x="340" y="465" width="120" height="30" as="geometry"/>
                </mxCell>
            </root>
        </mxGraphModel>
    </diagram>
</mxfile>